<mxfile host="app.diagrams.net" modified="2022-11-14T17:42:13.238Z" agent="5.0 (Windows NT 10.0; Win64; x64) AppleWebKit/537.36 (KHTML, like Gecko) Chrome/106.0.0.0 Safari/537.36 OPR/92.0.0.0" etag="li1p5ZdjZzKzziepQL3s" version="20.5.3" type="github">
  <diagram id="FCkLi6xoFZWZT3RoHIYq" name="Pagina-1">
    <mxGraphModel dx="2209" dy="1933" grid="1" gridSize="10" guides="1" tooltips="1" connect="1" arrows="1" fold="1" page="1" pageScale="1" pageWidth="827" pageHeight="1169" math="0" shadow="0">
      <root>
        <mxCell id="0" />
        <mxCell id="1" parent="0" />
        <mxCell id="CKIbaH0M_maWAluD3zWJ-144" value="view" style="shape=umlFrame;whiteSpace=wrap;html=1;width=50;height=21;" vertex="1" parent="1">
          <mxGeometry x="30" y="9" width="910" height="491" as="geometry" />
        </mxCell>
        <mxCell id="CKIbaH0M_maWAluD3zWJ-1" value="&lt;b&gt;View&lt;/b&gt;" style="html=1;" vertex="1" parent="1">
          <mxGeometry x="360" y="80" width="80" height="30" as="geometry" />
        </mxCell>
        <mxCell id="CKIbaH0M_maWAluD3zWJ-2" value="&amp;lt;&amp;lt;interface&amp;gt;&amp;gt;&lt;br&gt;&lt;b&gt;GenericGUI&lt;/b&gt;" style="html=1;" vertex="1" parent="1">
          <mxGeometry x="350" y="140" width="100" height="40" as="geometry" />
        </mxCell>
        <mxCell id="CKIbaH0M_maWAluD3zWJ-3" value="" style="endArrow=diamondThin;endFill=1;endSize=24;html=1;rounded=0;entryX=0.5;entryY=1;entryDx=0;entryDy=0;exitX=0.5;exitY=0;exitDx=0;exitDy=0;" edge="1" parent="1" source="CKIbaH0M_maWAluD3zWJ-2" target="CKIbaH0M_maWAluD3zWJ-1">
          <mxGeometry width="160" relative="1" as="geometry">
            <mxPoint x="270" y="150" as="sourcePoint" />
            <mxPoint x="430" y="150" as="targetPoint" />
          </mxGeometry>
        </mxCell>
        <mxCell id="CKIbaH0M_maWAluD3zWJ-4" value="&lt;b&gt;MusicPlayer&lt;/b&gt;" style="html=1;" vertex="1" parent="1">
          <mxGeometry x="220" y="40" width="120" height="30" as="geometry" />
        </mxCell>
        <mxCell id="CKIbaH0M_maWAluD3zWJ-5" value="&amp;lt;&amp;lt;interface&amp;gt;&amp;gt;&lt;br&gt;&lt;b&gt;AnimatedBoard&lt;/b&gt;" style="html=1;" vertex="1" parent="1">
          <mxGeometry x="420" y="260" width="100" height="40" as="geometry" />
        </mxCell>
        <mxCell id="CKIbaH0M_maWAluD3zWJ-6" value="" style="endArrow=diamondThin;endFill=1;endSize=24;html=1;rounded=0;exitX=0.5;exitY=1;exitDx=0;exitDy=0;entryX=0;entryY=0.5;entryDx=0;entryDy=0;" edge="1" parent="1" source="CKIbaH0M_maWAluD3zWJ-4" target="CKIbaH0M_maWAluD3zWJ-1">
          <mxGeometry width="160" relative="1" as="geometry">
            <mxPoint x="500" y="170" as="sourcePoint" />
            <mxPoint x="320" y="110" as="targetPoint" />
            <Array as="points">
              <mxPoint x="280" y="95" />
            </Array>
          </mxGeometry>
        </mxCell>
        <mxCell id="CKIbaH0M_maWAluD3zWJ-7" value="&lt;b&gt;App&lt;/b&gt;" style="html=1;" vertex="1" parent="1">
          <mxGeometry x="450" y="30" width="80" height="30" as="geometry" />
        </mxCell>
        <mxCell id="CKIbaH0M_maWAluD3zWJ-8" value="&lt;b&gt;ConstantsView&lt;/b&gt;" style="html=1;" vertex="1" parent="1">
          <mxGeometry x="493" y="80" width="100" height="30" as="geometry" />
        </mxCell>
        <mxCell id="CKIbaH0M_maWAluD3zWJ-9" value="&lt;b&gt;DiceView&lt;/b&gt;" style="html=1;" vertex="1" parent="1">
          <mxGeometry x="508" y="210" width="70" height="30" as="geometry" />
        </mxCell>
        <mxCell id="CKIbaH0M_maWAluD3zWJ-10" value="&amp;lt;&amp;lt;abstract&amp;gt;&amp;gt;&lt;br&gt;&lt;b&gt;DynamicGameBoard&lt;/b&gt;" style="html=1;" vertex="1" parent="1">
          <mxGeometry x="450" y="330" width="130" height="40" as="geometry" />
        </mxCell>
        <mxCell id="CKIbaH0M_maWAluD3zWJ-11" value="&amp;lt;&amp;lt;abstract&amp;gt;&amp;gt;&lt;br&gt;&lt;b&gt;DynamicGameBoardRedraw&lt;/b&gt;" style="html=1;" vertex="1" parent="1">
          <mxGeometry x="430" y="400" width="170" height="40" as="geometry" />
        </mxCell>
        <mxCell id="CKIbaH0M_maWAluD3zWJ-12" value="&amp;lt;&amp;lt;abstract&amp;gt;&amp;gt;&lt;b&gt;&lt;br&gt;GameBoard&lt;/b&gt;" style="html=1;" vertex="1" parent="1">
          <mxGeometry x="288" y="330" width="80" height="40" as="geometry" />
        </mxCell>
        <mxCell id="CKIbaH0M_maWAluD3zWJ-13" value="&amp;lt;&amp;lt;abstract&amp;gt;&amp;gt;&lt;b&gt;&lt;br&gt;GameBoardRedraw&lt;/b&gt;" style="html=1;" vertex="1" parent="1">
          <mxGeometry x="263" y="400" width="130" height="40" as="geometry" />
        </mxCell>
        <mxCell id="CKIbaH0M_maWAluD3zWJ-15" value="&lt;b&gt;GameView&lt;/b&gt;" style="html=1;" vertex="1" parent="1">
          <mxGeometry x="728" y="290" width="80" height="30" as="geometry" />
        </mxCell>
        <mxCell id="CKIbaH0M_maWAluD3zWJ-16" value="&lt;b&gt;GameViewRedraw&lt;/b&gt;" style="html=1;" vertex="1" parent="1">
          <mxGeometry x="703" y="450" width="130" height="30" as="geometry" />
        </mxCell>
        <mxCell id="CKIbaH0M_maWAluD3zWJ-17" value="&lt;b&gt;ImageListCell&lt;/b&gt;" style="html=1;" vertex="1" parent="1">
          <mxGeometry x="50" y="160" width="90" height="30" as="geometry" />
        </mxCell>
        <mxCell id="CKIbaH0M_maWAluD3zWJ-18" value="" style="ellipse;whiteSpace=wrap;html=1;aspect=fixed;" vertex="1" parent="1">
          <mxGeometry x="413" y="-20" width="15" height="15" as="geometry" />
        </mxCell>
        <mxCell id="CKIbaH0M_maWAluD3zWJ-19" value="IView" style="text;html=1;strokeColor=none;fillColor=none;align=center;verticalAlign=middle;whiteSpace=wrap;rounded=0;" vertex="1" parent="1">
          <mxGeometry x="416" y="-27.5" width="60" height="30" as="geometry" />
        </mxCell>
        <mxCell id="CKIbaH0M_maWAluD3zWJ-20" value="&lt;b&gt;LeaderboardView&lt;/b&gt;" style="html=1;" vertex="1" parent="1">
          <mxGeometry x="120" y="250" width="120" height="30" as="geometry" />
        </mxCell>
        <mxCell id="CKIbaH0M_maWAluD3zWJ-22" value="&lt;b&gt;LoadGameViewRedraw&lt;/b&gt;" style="html=1;" vertex="1" parent="1">
          <mxGeometry x="70" y="405" width="150" height="30" as="geometry" />
        </mxCell>
        <mxCell id="CKIbaH0M_maWAluD3zWJ-24" value="&lt;b&gt;MainMenu&lt;/b&gt;" style="html=1;" vertex="1" parent="1">
          <mxGeometry x="160" y="160" width="80" height="30" as="geometry" />
        </mxCell>
        <mxCell id="CKIbaH0M_maWAluD3zWJ-25" value="&lt;b&gt;PawnView&lt;/b&gt;" style="html=1;" vertex="1" parent="1">
          <mxGeometry x="288" y="260" width="80" height="30" as="geometry" />
        </mxCell>
        <mxCell id="CKIbaH0M_maWAluD3zWJ-26" value="&lt;b&gt;SettingsView&lt;/b&gt;" style="html=1;" vertex="1" parent="1">
          <mxGeometry x="493" y="145" width="90" height="30" as="geometry" />
        </mxCell>
        <mxCell id="CKIbaH0M_maWAluD3zWJ-27" value="&lt;b&gt;TutorialView&lt;/b&gt;" style="html=1;" vertex="1" parent="1">
          <mxGeometry x="672.5" y="335" width="90" height="30" as="geometry" />
        </mxCell>
        <mxCell id="CKIbaH0M_maWAluD3zWJ-28" value="&lt;b&gt;TutorialViewRedraw&lt;/b&gt;" style="html=1;" vertex="1" parent="1">
          <mxGeometry x="652.5" y="405" width="130" height="30" as="geometry" />
        </mxCell>
        <mxCell id="CKIbaH0M_maWAluD3zWJ-29" value="&lt;b&gt;VictoryComponentFactory&lt;/b&gt;" style="html=1;" vertex="1" parent="1">
          <mxGeometry x="720" y="230" width="170" height="30" as="geometry" />
        </mxCell>
        <mxCell id="CKIbaH0M_maWAluD3zWJ-59" value="" style="endArrow=open;endSize=12;dashed=1;html=1;rounded=0;exitX=0;exitY=0.5;exitDx=0;exitDy=0;entryX=1;entryY=0.5;entryDx=0;entryDy=0;" edge="1" parent="1" source="CKIbaH0M_maWAluD3zWJ-24" target="CKIbaH0M_maWAluD3zWJ-17">
          <mxGeometry x="-0.4425" y="-39" width="160" relative="1" as="geometry">
            <mxPoint x="530" y="384.17" as="sourcePoint" />
            <mxPoint x="150" y="110" as="targetPoint" />
            <mxPoint as="offset" />
          </mxGeometry>
        </mxCell>
        <mxCell id="CKIbaH0M_maWAluD3zWJ-61" value="" style="endArrow=open;endSize=12;dashed=1;html=1;rounded=0;entryX=0.25;entryY=1;entryDx=0;entryDy=0;" edge="1" parent="1" target="CKIbaH0M_maWAluD3zWJ-7">
          <mxGeometry x="-0.4425" y="-39" width="160" relative="1" as="geometry">
            <mxPoint x="470" y="95" as="sourcePoint" />
            <mxPoint x="610.0000000000002" y="430" as="targetPoint" />
            <mxPoint as="offset" />
          </mxGeometry>
        </mxCell>
        <mxCell id="CKIbaH0M_maWAluD3zWJ-62" value="game" style="shape=folder;fontStyle=1;spacingTop=10;tabWidth=30;tabHeight=10;tabPosition=left;html=1;" vertex="1" parent="1">
          <mxGeometry x="850" y="280" width="70" height="40" as="geometry" />
        </mxCell>
        <mxCell id="CKIbaH0M_maWAluD3zWJ-63" value="settings" style="shape=folder;fontStyle=1;spacingTop=10;tabWidth=30;tabHeight=10;tabPosition=left;html=1;" vertex="1" parent="1">
          <mxGeometry x="635" y="135" width="70" height="40" as="geometry" />
        </mxCell>
        <mxCell id="CKIbaH0M_maWAluD3zWJ-64" value="utilities" style="shape=folder;fontStyle=1;spacingTop=10;tabWidth=30;tabHeight=10;tabPosition=left;html=1;" vertex="1" parent="1">
          <mxGeometry x="635" y="195" width="70" height="40" as="geometry" />
        </mxCell>
        <mxCell id="CKIbaH0M_maWAluD3zWJ-70" value="" style="endArrow=open;endSize=12;dashed=1;html=1;rounded=0;entryX=0;entryY=0.5;entryDx=0;entryDy=0;" edge="1" parent="1" target="CKIbaH0M_maWAluD3zWJ-8">
          <mxGeometry x="-0.4425" y="-39" width="160" relative="1" as="geometry">
            <mxPoint x="440" y="95" as="sourcePoint" />
            <mxPoint x="410" y="60" as="targetPoint" />
            <mxPoint as="offset" />
          </mxGeometry>
        </mxCell>
        <mxCell id="CKIbaH0M_maWAluD3zWJ-71" value="Da ConstantsView dipende la maggior parte delle classi del package. Si riporta solo la dipendenza di View per semplicità." style="shape=note;size=14;whiteSpace=wrap;html=1;" vertex="1" parent="1">
          <mxGeometry x="635" y="40" width="250" height="70" as="geometry" />
        </mxCell>
        <mxCell id="CKIbaH0M_maWAluD3zWJ-23" value="&lt;b&gt;GameSetup&lt;/b&gt;" style="html=1;" vertex="1" parent="1">
          <mxGeometry x="160" y="205" width="80" height="30" as="geometry" />
        </mxCell>
        <mxCell id="CKIbaH0M_maWAluD3zWJ-21" value="&lt;b&gt;LoadGameView&lt;/b&gt;" style="html=1;" vertex="1" parent="1">
          <mxGeometry x="90" y="335" width="110" height="30" as="geometry" />
        </mxCell>
        <mxCell id="CKIbaH0M_maWAluD3zWJ-88" value="" style="endArrow=diamondThin;endFill=1;endSize=24;html=1;rounded=0;entryX=1;entryY=0.5;entryDx=0;entryDy=0;exitX=0;exitY=0;exitDx=0;exitDy=25;exitPerimeter=0;" edge="1" parent="1" source="CKIbaH0M_maWAluD3zWJ-63" target="CKIbaH0M_maWAluD3zWJ-26">
          <mxGeometry width="160" relative="1" as="geometry">
            <mxPoint x="550" y="105" as="sourcePoint" />
            <mxPoint x="450" y="105" as="targetPoint" />
          </mxGeometry>
        </mxCell>
        <mxCell id="CKIbaH0M_maWAluD3zWJ-89" value="" style="endArrow=open;endSize=12;dashed=1;html=1;rounded=0;entryX=0.5;entryY=0;entryDx=0;entryDy=0;exitX=0.5;exitY=1;exitDx=0;exitDy=0;" edge="1" parent="1" source="CKIbaH0M_maWAluD3zWJ-10" target="CKIbaH0M_maWAluD3zWJ-11">
          <mxGeometry x="-0.4425" y="-39" width="160" relative="1" as="geometry">
            <mxPoint x="370" y="105" as="sourcePoint" />
            <mxPoint x="258.9999999999998" y="105" as="targetPoint" />
            <mxPoint as="offset" />
          </mxGeometry>
        </mxCell>
        <mxCell id="CKIbaH0M_maWAluD3zWJ-90" value="" style="endArrow=open;endSize=12;dashed=1;html=1;rounded=0;exitX=0.5;exitY=1;exitDx=0;exitDy=0;" edge="1" parent="1" source="CKIbaH0M_maWAluD3zWJ-21" target="CKIbaH0M_maWAluD3zWJ-22">
          <mxGeometry x="-0.4425" y="-39" width="160" relative="1" as="geometry">
            <mxPoint x="555" y="449.9999999999999" as="sourcePoint" />
            <mxPoint x="555" y="489.9999999999999" as="targetPoint" />
            <mxPoint as="offset" />
          </mxGeometry>
        </mxCell>
        <mxCell id="CKIbaH0M_maWAluD3zWJ-91" value="" style="endArrow=open;endSize=12;dashed=1;html=1;rounded=0;exitX=0.5;exitY=1;exitDx=0;exitDy=0;entryX=0.5;entryY=0;entryDx=0;entryDy=0;" edge="1" parent="1" source="CKIbaH0M_maWAluD3zWJ-12" target="CKIbaH0M_maWAluD3zWJ-13">
          <mxGeometry x="-0.4425" y="-39" width="160" relative="1" as="geometry">
            <mxPoint x="348" y="570" as="sourcePoint" />
            <mxPoint x="348" y="620" as="targetPoint" />
            <mxPoint as="offset" />
          </mxGeometry>
        </mxCell>
        <mxCell id="CKIbaH0M_maWAluD3zWJ-94" value="" style="endArrow=open;endSize=12;dashed=1;html=1;rounded=0;exitX=0.5;exitY=1;exitDx=0;exitDy=0;entryX=0.5;entryY=0;entryDx=0;entryDy=0;" edge="1" parent="1" source="CKIbaH0M_maWAluD3zWJ-27" target="CKIbaH0M_maWAluD3zWJ-28">
          <mxGeometry x="-0.4425" y="-39" width="160" relative="1" as="geometry">
            <mxPoint x="505" y="580" as="sourcePoint" />
            <mxPoint x="505" y="620" as="targetPoint" />
            <mxPoint as="offset" />
          </mxGeometry>
        </mxCell>
        <mxCell id="CKIbaH0M_maWAluD3zWJ-95" value="" style="endArrow=open;endSize=12;dashed=1;html=1;rounded=0;exitX=0.904;exitY=1;exitDx=0;exitDy=0;entryX=0.75;entryY=0;entryDx=0;entryDy=0;exitPerimeter=0;" edge="1" parent="1" source="CKIbaH0M_maWAluD3zWJ-15" target="CKIbaH0M_maWAluD3zWJ-16">
          <mxGeometry x="-0.4425" y="-39" width="160" relative="1" as="geometry">
            <mxPoint x="515" y="590" as="sourcePoint" />
            <mxPoint x="515" y="630" as="targetPoint" />
            <mxPoint as="offset" />
          </mxGeometry>
        </mxCell>
        <mxCell id="CKIbaH0M_maWAluD3zWJ-96" value="" style="endArrow=block;endSize=16;endFill=0;html=1;rounded=0;entryX=1;entryY=0.5;entryDx=0;entryDy=0;exitX=0;exitY=0.5;exitDx=0;exitDy=0;" edge="1" parent="1" source="CKIbaH0M_maWAluD3zWJ-27" target="CKIbaH0M_maWAluD3zWJ-10">
          <mxGeometry x="0.125" y="-60" width="160" relative="1" as="geometry">
            <mxPoint x="520" y="490" as="sourcePoint" />
            <mxPoint x="680" y="490" as="targetPoint" />
            <mxPoint as="offset" />
          </mxGeometry>
        </mxCell>
        <mxCell id="CKIbaH0M_maWAluD3zWJ-97" value="" style="endArrow=block;endSize=16;endFill=0;html=1;rounded=0;entryX=1;entryY=0.5;entryDx=0;entryDy=0;exitX=0;exitY=0.5;exitDx=0;exitDy=0;" edge="1" parent="1" source="CKIbaH0M_maWAluD3zWJ-28" target="CKIbaH0M_maWAluD3zWJ-11">
          <mxGeometry x="0.125" y="-60" width="160" relative="1" as="geometry">
            <mxPoint x="682.5" y="364.9999999999999" as="sourcePoint" />
            <mxPoint x="590" y="364.9999999999999" as="targetPoint" />
            <mxPoint as="offset" />
          </mxGeometry>
        </mxCell>
        <mxCell id="CKIbaH0M_maWAluD3zWJ-98" value="" style="endArrow=block;endSize=16;endFill=0;html=1;rounded=0;entryX=1;entryY=0.5;entryDx=0;entryDy=0;exitX=0;exitY=0.5;exitDx=0;exitDy=0;" edge="1" parent="1" source="CKIbaH0M_maWAluD3zWJ-10" target="CKIbaH0M_maWAluD3zWJ-12">
          <mxGeometry x="0.125" y="-60" width="160" relative="1" as="geometry">
            <mxPoint x="682.5" y="364.9999999999999" as="sourcePoint" />
            <mxPoint x="590" y="364.9999999999999" as="targetPoint" />
            <mxPoint as="offset" />
          </mxGeometry>
        </mxCell>
        <mxCell id="CKIbaH0M_maWAluD3zWJ-100" value="" style="endArrow=block;endSize=16;endFill=0;html=1;rounded=0;entryX=1;entryY=0.5;entryDx=0;entryDy=0;exitX=0;exitY=0.5;exitDx=0;exitDy=0;" edge="1" parent="1" source="CKIbaH0M_maWAluD3zWJ-11" target="CKIbaH0M_maWAluD3zWJ-13">
          <mxGeometry x="0.125" y="-60" width="160" relative="1" as="geometry">
            <mxPoint x="460" y="364.9999999999999" as="sourcePoint" />
            <mxPoint x="378" y="364.9999999999999" as="targetPoint" />
            <mxPoint as="offset" />
          </mxGeometry>
        </mxCell>
        <mxCell id="CKIbaH0M_maWAluD3zWJ-101" value="" style="endArrow=block;dashed=1;endFill=0;endSize=12;html=1;rounded=0;entryX=0.75;entryY=1;entryDx=0;entryDy=0;exitX=0.346;exitY=0;exitDx=0;exitDy=0;exitPerimeter=0;" edge="1" parent="1" source="CKIbaH0M_maWAluD3zWJ-10" target="CKIbaH0M_maWAluD3zWJ-5">
          <mxGeometry width="160" relative="1" as="geometry">
            <mxPoint x="495" y="320" as="sourcePoint" />
            <mxPoint x="480" y="310" as="targetPoint" />
          </mxGeometry>
        </mxCell>
        <mxCell id="CKIbaH0M_maWAluD3zWJ-102" value="" style="endArrow=block;endSize=16;endFill=0;html=1;rounded=0;entryX=0;entryY=0.5;entryDx=0;entryDy=0;exitX=1;exitY=0.5;exitDx=0;exitDy=0;" edge="1" parent="1" source="CKIbaH0M_maWAluD3zWJ-21" target="CKIbaH0M_maWAluD3zWJ-12">
          <mxGeometry x="0.125" y="-60" width="160" relative="1" as="geometry">
            <mxPoint x="460" y="364.9999999999999" as="sourcePoint" />
            <mxPoint x="378" y="364.9999999999999" as="targetPoint" />
            <mxPoint as="offset" />
          </mxGeometry>
        </mxCell>
        <mxCell id="CKIbaH0M_maWAluD3zWJ-103" value="" style="endArrow=block;endSize=16;endFill=0;html=1;rounded=0;entryX=0;entryY=0.5;entryDx=0;entryDy=0;exitX=1;exitY=0.5;exitDx=0;exitDy=0;" edge="1" parent="1" source="CKIbaH0M_maWAluD3zWJ-22" target="CKIbaH0M_maWAluD3zWJ-13">
          <mxGeometry x="0.125" y="-60" width="160" relative="1" as="geometry">
            <mxPoint x="210" y="364.9999999999999" as="sourcePoint" />
            <mxPoint x="298" y="364.9999999999999" as="targetPoint" />
            <mxPoint as="offset" />
          </mxGeometry>
        </mxCell>
        <mxCell id="CKIbaH0M_maWAluD3zWJ-105" value="" style="endArrow=none;endSize=16;endFill=0;html=1;rounded=0;exitX=0;exitY=0.5;exitDx=0;exitDy=0;" edge="1" parent="1" source="CKIbaH0M_maWAluD3zWJ-16">
          <mxGeometry x="0.125" y="-60" width="160" relative="1" as="geometry">
            <mxPoint x="662.5" y="429.9999999999999" as="sourcePoint" />
            <mxPoint x="640" y="420" as="targetPoint" />
            <mxPoint as="offset" />
            <Array as="points">
              <mxPoint x="640" y="465" />
            </Array>
          </mxGeometry>
        </mxCell>
        <mxCell id="CKIbaH0M_maWAluD3zWJ-106" value="" style="endArrow=none;endSize=16;endFill=0;html=1;rounded=0;exitX=0;exitY=0.5;exitDx=0;exitDy=0;" edge="1" parent="1" source="CKIbaH0M_maWAluD3zWJ-15">
          <mxGeometry x="0.125" y="-60" width="160" relative="1" as="geometry">
            <mxPoint x="682.5" y="364.9999999999999" as="sourcePoint" />
            <mxPoint x="640" y="350" as="targetPoint" />
            <mxPoint as="offset" />
            <Array as="points">
              <mxPoint x="640" y="305" />
            </Array>
          </mxGeometry>
        </mxCell>
        <mxCell id="CKIbaH0M_maWAluD3zWJ-107" value="" style="endArrow=block;dashed=1;endFill=0;endSize=12;html=1;rounded=0;entryX=0.5;entryY=1;entryDx=0;entryDy=0;exitX=0;exitY=0.25;exitDx=0;exitDy=0;" edge="1" parent="1" source="CKIbaH0M_maWAluD3zWJ-10" target="CKIbaH0M_maWAluD3zWJ-2">
          <mxGeometry width="160" relative="1" as="geometry">
            <mxPoint x="525" y="339.9999999999999" as="sourcePoint" />
            <mxPoint x="525" y="274.9999999999999" as="targetPoint" />
            <Array as="points">
              <mxPoint x="400" y="340" />
            </Array>
          </mxGeometry>
        </mxCell>
        <mxCell id="CKIbaH0M_maWAluD3zWJ-108" value="" style="endArrow=block;dashed=1;endFill=0;endSize=12;html=1;rounded=0;exitX=0.5;exitY=0;exitDx=0;exitDy=0;entryX=0;entryY=0.75;entryDx=0;entryDy=0;" edge="1" parent="1" source="CKIbaH0M_maWAluD3zWJ-21" target="CKIbaH0M_maWAluD3zWJ-2">
          <mxGeometry width="160" relative="1" as="geometry">
            <mxPoint x="492.5" y="339.9999999999999" as="sourcePoint" />
            <mxPoint x="360" y="190" as="targetPoint" />
            <Array as="points">
              <mxPoint x="145" y="300" />
              <mxPoint x="260" y="300" />
              <mxPoint x="260" y="170" />
            </Array>
          </mxGeometry>
        </mxCell>
        <mxCell id="CKIbaH0M_maWAluD3zWJ-110" value="" style="endArrow=open;endSize=12;dashed=1;html=1;rounded=0;exitX=0.5;exitY=0;exitDx=0;exitDy=0;entryX=0.5;entryY=1;entryDx=0;entryDy=0;" edge="1" parent="1" source="CKIbaH0M_maWAluD3zWJ-12" target="CKIbaH0M_maWAluD3zWJ-25">
          <mxGeometry x="-0.4425" y="-39" width="160" relative="1" as="geometry">
            <mxPoint x="557.5" y="339.9999999999999" as="sourcePoint" />
            <mxPoint x="557.5" y="309.9999999999999" as="targetPoint" />
            <mxPoint as="offset" />
          </mxGeometry>
        </mxCell>
        <mxCell id="CKIbaH0M_maWAluD3zWJ-111" value="" style="endArrow=diamondThin;endFill=1;endSize=24;html=1;rounded=0;entryX=1;entryY=0.5;entryDx=0;entryDy=0;exitX=0;exitY=0;exitDx=0;exitDy=25;exitPerimeter=0;" edge="1" parent="1" source="CKIbaH0M_maWAluD3zWJ-62" target="CKIbaH0M_maWAluD3zWJ-15">
          <mxGeometry width="160" relative="1" as="geometry">
            <mxPoint x="910" y="259.9999999999999" as="sourcePoint" />
            <mxPoint x="837" y="259.9999999999999" as="targetPoint" />
          </mxGeometry>
        </mxCell>
        <mxCell id="CKIbaH0M_maWAluD3zWJ-112" value="" style="endArrow=open;endSize=12;dashed=1;html=1;rounded=0;exitX=0.706;exitY=0.983;exitDx=0;exitDy=0;entryX=0;entryY=0;entryDx=50;entryDy=10;entryPerimeter=0;exitPerimeter=0;" edge="1" parent="1" source="CKIbaH0M_maWAluD3zWJ-63" target="CKIbaH0M_maWAluD3zWJ-64">
          <mxGeometry x="-0.4425" y="-39" width="160" relative="1" as="geometry">
            <mxPoint x="557.5" y="340" as="sourcePoint" />
            <mxPoint x="557.5" y="310" as="targetPoint" />
            <mxPoint as="offset" />
          </mxGeometry>
        </mxCell>
        <mxCell id="CKIbaH0M_maWAluD3zWJ-114" value="" style="endArrow=open;endSize=12;dashed=1;html=1;rounded=0;exitX=0.5;exitY=0;exitDx=0;exitDy=0;entryX=0.282;entryY=1;entryDx=0;entryDy=0;entryPerimeter=0;" edge="1" parent="1" source="CKIbaH0M_maWAluD3zWJ-15" target="CKIbaH0M_maWAluD3zWJ-29">
          <mxGeometry x="-0.4425" y="-39" width="160" relative="1" as="geometry">
            <mxPoint x="840" y="385" as="sourcePoint" />
            <mxPoint x="780" y="260" as="targetPoint" />
            <mxPoint as="offset" />
          </mxGeometry>
        </mxCell>
        <mxCell id="CKIbaH0M_maWAluD3zWJ-115" value="" style="endArrow=open;endSize=12;dashed=1;html=1;rounded=0;entryX=0.5;entryY=1;entryDx=0;entryDy=0;entryPerimeter=0;" edge="1" parent="1" target="CKIbaH0M_maWAluD3zWJ-64">
          <mxGeometry x="-0.4425" y="-39" width="160" relative="1" as="geometry">
            <mxPoint x="540" y="280" as="sourcePoint" />
            <mxPoint x="767.5" y="210" as="targetPoint" />
            <mxPoint as="offset" />
            <Array as="points">
              <mxPoint x="670" y="280" />
            </Array>
          </mxGeometry>
        </mxCell>
        <mxCell id="CKIbaH0M_maWAluD3zWJ-117" value="" style="endArrow=open;endSize=12;dashed=1;html=1;rounded=0;entryX=0.5;entryY=1;entryDx=0;entryDy=0;exitX=0.692;exitY=0;exitDx=0;exitDy=0;exitPerimeter=0;" edge="1" parent="1" source="CKIbaH0M_maWAluD3zWJ-10">
          <mxGeometry x="-0.4425" y="-39" width="160" relative="1" as="geometry">
            <mxPoint x="540" y="310" as="sourcePoint" />
            <mxPoint x="540" y="240" as="targetPoint" />
            <mxPoint as="offset" />
          </mxGeometry>
        </mxCell>
        <mxCell id="CKIbaH0M_maWAluD3zWJ-119" value="" style="endArrow=block;dashed=1;endFill=0;endSize=12;html=1;rounded=0;entryX=1;entryY=0.5;entryDx=0;entryDy=0;" edge="1" parent="1" target="CKIbaH0M_maWAluD3zWJ-2">
          <mxGeometry width="160" relative="1" as="geometry">
            <mxPoint x="490" y="160" as="sourcePoint" />
            <mxPoint x="492" y="305" as="targetPoint" />
          </mxGeometry>
        </mxCell>
        <mxCell id="CKIbaH0M_maWAluD3zWJ-120" value="" style="endArrow=none;dashed=1;html=1;rounded=0;" edge="1" parent="1">
          <mxGeometry width="50" height="50" relative="1" as="geometry">
            <mxPoint x="240" y="170" as="sourcePoint" />
            <mxPoint x="260" y="170" as="targetPoint" />
          </mxGeometry>
        </mxCell>
        <mxCell id="CKIbaH0M_maWAluD3zWJ-121" value="" style="endArrow=none;dashed=1;html=1;rounded=0;exitX=1;exitY=0.5;exitDx=0;exitDy=0;" edge="1" parent="1" source="CKIbaH0M_maWAluD3zWJ-23">
          <mxGeometry width="50" height="50" relative="1" as="geometry">
            <mxPoint x="239" y="170" as="sourcePoint" />
            <mxPoint x="260" y="220" as="targetPoint" />
          </mxGeometry>
        </mxCell>
        <mxCell id="CKIbaH0M_maWAluD3zWJ-122" value="" style="endArrow=none;dashed=1;html=1;rounded=0;exitX=1;exitY=0.5;exitDx=0;exitDy=0;" edge="1" parent="1" source="CKIbaH0M_maWAluD3zWJ-20">
          <mxGeometry width="50" height="50" relative="1" as="geometry">
            <mxPoint x="249" y="180" as="sourcePoint" />
            <mxPoint x="260" y="265" as="targetPoint" />
          </mxGeometry>
        </mxCell>
        <mxCell id="CKIbaH0M_maWAluD3zWJ-124" value="" style="endArrow=none;html=1;rounded=0;entryX=0.5;entryY=1;entryDx=0;entryDy=0;exitX=0.75;exitY=0;exitDx=0;exitDy=0;" edge="1" parent="1" source="CKIbaH0M_maWAluD3zWJ-1" target="CKIbaH0M_maWAluD3zWJ-18">
          <mxGeometry width="50" height="50" relative="1" as="geometry">
            <mxPoint x="410" y="30" as="sourcePoint" />
            <mxPoint x="420" y="30" as="targetPoint" />
          </mxGeometry>
        </mxCell>
        <mxCell id="CKIbaH0M_maWAluD3zWJ-125" value="" style="shape=requiredInterface;html=1;verticalLabelPosition=bottom;sketch=0;rotation=90;aspect=fixed;" vertex="1" parent="1">
          <mxGeometry x="174" y="-24.5" width="11" height="22" as="geometry" />
        </mxCell>
        <mxCell id="CKIbaH0M_maWAluD3zWJ-126" value="" style="endArrow=none;html=1;rounded=0;exitX=0.25;exitY=0;exitDx=0;exitDy=0;" edge="1" parent="1" source="CKIbaH0M_maWAluD3zWJ-1">
          <mxGeometry width="50" height="50" relative="1" as="geometry">
            <mxPoint x="430" y="90" as="sourcePoint" />
            <mxPoint x="180" y="20" as="targetPoint" />
            <Array as="points">
              <mxPoint x="380" y="20" />
            </Array>
          </mxGeometry>
        </mxCell>
        <mxCell id="CKIbaH0M_maWAluD3zWJ-127" value="ILogic" style="text;html=1;strokeColor=none;fillColor=none;align=center;verticalAlign=middle;whiteSpace=wrap;rounded=0;" vertex="1" parent="1">
          <mxGeometry x="120" y="-28.5" width="60" height="30" as="geometry" />
        </mxCell>
        <mxCell id="CKIbaH0M_maWAluD3zWJ-130" value="" style="shape=requiredInterface;html=1;verticalLabelPosition=bottom;sketch=0;rotation=0;aspect=fixed;" vertex="1" parent="1">
          <mxGeometry y="262" width="11" height="22" as="geometry" />
        </mxCell>
        <mxCell id="CKIbaH0M_maWAluD3zWJ-137" value="" style="endArrow=none;html=1;rounded=0;entryX=0;entryY=0.75;entryDx=0;entryDy=0;exitX=1;exitY=0.5;exitDx=0;exitDy=0;exitPerimeter=0;" edge="1" parent="1" source="CKIbaH0M_maWAluD3zWJ-130" target="CKIbaH0M_maWAluD3zWJ-20">
          <mxGeometry width="50" height="50" relative="1" as="geometry">
            <mxPoint x="70" y="330" as="sourcePoint" />
            <mxPoint x="120" y="280" as="targetPoint" />
          </mxGeometry>
        </mxCell>
        <mxCell id="CKIbaH0M_maWAluD3zWJ-138" value="Player" style="text;html=1;strokeColor=none;fillColor=none;align=center;verticalAlign=middle;whiteSpace=wrap;rounded=0;" vertex="1" parent="1">
          <mxGeometry x="-24.5" y="239" width="60" height="30" as="geometry" />
        </mxCell>
        <mxCell id="CKIbaH0M_maWAluD3zWJ-139" value="" style="endArrow=none;html=1;rounded=0;entryX=0;entryY=0.25;entryDx=0;entryDy=0;exitX=1;exitY=0.5;exitDx=0;exitDy=0;exitPerimeter=0;" edge="1" parent="1" source="CKIbaH0M_maWAluD3zWJ-125" target="CKIbaH0M_maWAluD3zWJ-2">
          <mxGeometry width="50" height="50" relative="1" as="geometry">
            <mxPoint x="180" y="40" as="sourcePoint" />
            <mxPoint x="310" y="110" as="targetPoint" />
            <Array as="points">
              <mxPoint x="180" y="150" />
            </Array>
          </mxGeometry>
        </mxCell>
        <mxCell id="CKIbaH0M_maWAluD3zWJ-140" value="" style="endArrow=none;html=1;rounded=0;exitX=0;exitY=0;exitDx=70;exitDy=17.5;exitPerimeter=0;" edge="1" parent="1" source="CKIbaH0M_maWAluD3zWJ-64">
          <mxGeometry width="50" height="50" relative="1" as="geometry">
            <mxPoint x="740" y="250" as="sourcePoint" />
            <mxPoint x="960" y="213" as="targetPoint" />
          </mxGeometry>
        </mxCell>
        <mxCell id="CKIbaH0M_maWAluD3zWJ-141" value="" style="endArrow=none;html=1;rounded=0;exitX=0;exitY=0;exitDx=50;exitDy=10;exitPerimeter=0;" edge="1" parent="1" source="CKIbaH0M_maWAluD3zWJ-62">
          <mxGeometry width="50" height="50" relative="1" as="geometry">
            <mxPoint x="880" y="280" as="sourcePoint" />
            <mxPoint x="900" y="213" as="targetPoint" />
          </mxGeometry>
        </mxCell>
        <mxCell id="CKIbaH0M_maWAluD3zWJ-142" value="" style="shape=requiredInterface;html=1;verticalLabelPosition=bottom;sketch=0;rotation=-180;aspect=fixed;" vertex="1" parent="1">
          <mxGeometry x="960.5" y="202" width="11" height="22" as="geometry" />
        </mxCell>
        <mxCell id="CKIbaH0M_maWAluD3zWJ-143" value="ILogic" style="text;html=1;strokeColor=none;fillColor=none;align=center;verticalAlign=middle;whiteSpace=wrap;rounded=0;" vertex="1" parent="1">
          <mxGeometry x="936" y="179" width="60" height="30" as="geometry" />
        </mxCell>
        <mxCell id="CKIbaH0M_maWAluD3zWJ-145" value="" style="endArrow=none;dashed=1;html=1;rounded=0;entryX=1;entryY=0.5;entryDx=0;entryDy=0;exitX=0;exitY=0.787;exitDx=0;exitDy=0;exitPerimeter=0;" edge="1" parent="1" source="CKIbaH0M_maWAluD3zWJ-71" target="CKIbaH0M_maWAluD3zWJ-8">
          <mxGeometry width="50" height="50" relative="1" as="geometry">
            <mxPoint x="440" y="270" as="sourcePoint" />
            <mxPoint x="490" y="220" as="targetPoint" />
          </mxGeometry>
        </mxCell>
      </root>
    </mxGraphModel>
  </diagram>
</mxfile>
